<?xml version="1.0" encoding="utf-8"?>
<!-- Generator: Adobe Illustrator 15.1.0, SVG Export Plug-In . SVG Version: 6.00 Build 0)  -->
<!DOCTYPE svg PUBLIC "-//W3C//DTD SVG 1.1//EN" "http://www.w3.org/Graphics/SVG/1.1/DTD/svg11.dtd">
<svg version="1.1" id="Layer_1" xmlns="http://www.w3.org/2000/svg" xmlns:xlink="http://www.w3.org/1999/xlink" x="0px" y="0px"
	 width="29.96px" height="30px" viewBox="0 0 29.96 30" enable-background="new 0 0 29.96 30" xml:space="preserve">
<g>
	<path fill="#231F20" d="M29.96,17.242l-1.494,4.399l-3.029,4.161l-3.955,2.705L17.159,30H12.8l-4.321-1.492l-3.956-2.705
		l-3.028-4.161L0,17.242v-4.483l1.495-4.4l3.028-4.159l3.956-2.707L12.8,0h4.359l4.322,1.494l3.955,2.707l3.029,4.159l1.494,4.4
		V17.242z M27.214,13.286l-1.252-3.714L23.54,6.26l-3.271-2.262l-3.633-1.25h-3.311l-3.634,1.25L6.419,6.26L3.997,9.571
		l-1.251,3.714v3.432l1.251,3.714l2.423,3.312l3.271,2.261l3.634,1.252h3.311l3.633-1.252l3.271-2.261l2.422-3.312l1.252-3.714
		V13.286z"/>
	<polygon fill="#231F20" points="16.173,23.789 13.696,23.789 13.696,10.072 9.586,10.072 9.586,7.642 20.374,7.642 20.374,10.072 
		16.173,10.072 	"/>
</g>
</svg>
