<?xml version="1.0" encoding="utf-8"?>
<!-- Generator: Adobe Illustrator 15.1.0, SVG Export Plug-In . SVG Version: 6.00 Build 0)  -->
<!DOCTYPE svg PUBLIC "-//W3C//DTD SVG 1.1//EN" "http://www.w3.org/Graphics/SVG/1.1/DTD/svg11.dtd">
<svg version="1.1" id="Layer_1" xmlns="http://www.w3.org/2000/svg" xmlns:xlink="http://www.w3.org/1999/xlink" x="0px" y="0px"
	 width="29.96px" height="30px" viewBox="0 0 29.96 30" enable-background="new 0 0 29.96 30" xml:space="preserve">
<polygon fill="#231F20" points="12.862,9.358 12.862,13.287 18.132,13.287 18.132,15.738 12.862,15.738 12.862,23.075 10.41,23.075 
	10.41,6.927 20.266,6.927 20.266,9.358 "/>
<path fill="#231F20" d="M29.96,17.242l-1.493,4.399l-3.029,4.162l-3.956,2.704L17.161,30h-4.36l-4.322-1.492l-3.957-2.704
	l-3.028-4.162L0,17.242v-4.483l1.495-4.4L4.522,4.2l3.957-2.707L12.801,0h4.36l4.32,1.493L25.438,4.2l3.029,4.159l1.493,4.4V17.242z
	 M27.216,13.286L25.962,9.57l-2.421-3.312l-3.271-2.261l-3.636-1.25h-3.31l-3.634,1.25L6.42,6.259L3.997,9.57l-1.252,3.715v3.431
	l1.252,3.714l2.423,3.312l3.271,2.263l3.634,1.25h3.31l3.636-1.25l3.271-2.263l2.421-3.312l1.254-3.714V13.286z"/>
</svg>
