<?xml version="1.0" encoding="utf-8"?>
<!-- Generator: Adobe Illustrator 15.1.0, SVG Export Plug-In . SVG Version: 6.00 Build 0)  -->
<!DOCTYPE svg PUBLIC "-//W3C//DTD SVG 1.1//EN" "http://www.w3.org/Graphics/SVG/1.1/DTD/svg11.dtd">
<svg version="1.1" id="Layer_1" xmlns="http://www.w3.org/2000/svg" xmlns:xlink="http://www.w3.org/1999/xlink" x="0px" y="0px"
	 width="29.96px" height="30px" viewBox="0 0 29.96 30" enable-background="new 0 0 29.96 30" xml:space="preserve">
<g>
	<path fill="#231F20" d="M29.96,17.242l-1.494,4.399l-3.028,4.161l-3.957,2.705L17.16,30H12.8l-4.321-1.492l-3.956-2.705
		l-3.027-4.161L0,17.242v-4.483l1.495-4.4L4.522,4.2l3.956-2.707L12.8,0h4.36l4.32,1.494L25.438,4.2l3.028,4.159l1.494,4.4V17.242z
		 M27.215,13.286l-1.253-3.715l-2.421-3.312L20.27,3.998l-3.634-1.25h-3.311l-3.634,1.25L6.42,6.259L3.997,9.571l-1.252,3.715v3.431
		l1.252,3.715l2.423,3.311l3.271,2.262l3.634,1.252h3.311l3.634-1.252l3.271-2.262l2.421-3.311l1.253-3.715V13.286z"/>
	<polygon fill="#231F20" points="13.925,23.789 7.793,7.641 10.405,7.641 14.991,19.746 19.556,7.641 22.168,7.641 16.06,23.789 	
		"/>
</g>
</svg>
